<svg width="45" height="44" viewBox="0 0 45 44" fill="none" xmlns="http://www.w3.org/2000/svg">
<path d="M24.5625 22C24.5625 22.4079 24.4415 22.8067 24.2149 23.1459C23.9883 23.485 23.6662 23.7494 23.2893 23.9055C22.9124 24.0616 22.4977 24.1024 22.0976 24.0229C21.6975 23.9433 21.33 23.7468 21.0416 23.4584C20.7531 23.17 20.5567 22.8025 20.4771 22.4024C20.3975 22.0023 20.4384 21.5876 20.5945 21.2107C20.7506 20.8338 21.015 20.5117 21.3541 20.2851C21.6933 20.0585 22.0921 19.9375 22.5 19.9375C23.047 19.9375 23.5716 20.1548 23.9584 20.5416C24.3452 20.9284 24.5625 21.453 24.5625 22ZM14.9375 19.9375C14.5296 19.9375 14.1308 20.0585 13.7916 20.2851C13.4525 20.5117 13.1881 20.8338 13.032 21.2107C12.8759 21.5876 12.835 22.0023 12.9146 22.4024C12.9942 22.8025 13.1906 23.17 13.4791 23.4584C13.7675 23.7468 14.135 23.9433 14.5351 24.0229C14.9352 24.1024 15.3499 24.0616 15.7268 23.9055C16.1037 23.7494 16.4258 23.485 16.6524 23.1459C16.879 22.8067 17 22.4079 17 22C17 21.453 16.7827 20.9284 16.3959 20.5416C16.0091 20.1548 15.4845 19.9375 14.9375 19.9375ZM30.0625 19.9375C29.6546 19.9375 29.2558 20.0585 28.9166 20.2851C28.5775 20.5117 28.3131 20.8338 28.157 21.2107C28.0009 21.5876 27.96 22.0023 28.0396 22.4024C28.1192 22.8025 28.3156 23.17 28.6041 23.4584C28.8925 23.7468 29.26 23.9433 29.6601 24.0229C30.0602 24.1024 30.4749 24.0616 30.8518 23.9055C31.2287 23.7494 31.5508 23.485 31.7774 23.1459C32.004 22.8067 32.125 22.4079 32.125 22C32.125 21.453 31.9077 20.9284 31.5209 20.5416C31.1341 20.1548 30.6095 19.9375 30.0625 19.9375ZM40.375 22C40.3757 25.0861 39.5774 28.1197 38.0577 30.8057C36.5381 33.4917 34.349 35.7386 31.7034 37.3275C29.0578 38.9165 26.0459 39.7934 22.9609 39.873C19.8758 39.9525 16.8227 39.232 14.0988 37.7816L8.24641 39.7323C7.76187 39.8939 7.2419 39.9174 6.74478 39.8001C6.24766 39.6827 5.79304 39.4293 5.43187 39.0681C5.0707 38.707 4.81725 38.2523 4.69993 37.7552C4.58262 37.2581 4.60607 36.7381 4.76766 36.2536L6.71844 30.4012C5.44338 28.004 4.73121 25.3478 4.636 22.6342C4.54078 19.9206 5.06501 17.221 6.1689 14.7402C7.27279 12.2595 8.92733 10.0628 11.0069 8.31701C13.0865 6.57118 15.5365 5.32206 18.1709 4.66447C20.8054 4.00687 23.555 3.95808 26.2111 4.5218C28.8672 5.08552 31.3599 6.24693 33.5001 7.91788C35.6404 9.58883 37.3718 11.7254 38.563 14.1654C39.7542 16.6054 40.3739 19.2847 40.375 22ZM37.625 22C37.6243 19.6799 37.0899 17.391 36.0632 15.3105C35.0364 13.23 33.5447 11.4136 31.7036 10.0018C29.8625 8.59001 27.7212 7.62071 25.4456 7.16888C23.1699 6.71704 20.8208 6.79479 18.5799 7.39611C16.3391 7.99743 14.2667 9.1062 12.5229 10.6366C10.7792 12.1671 9.41089 14.0781 8.52392 16.222C7.63694 18.3659 7.25506 20.685 7.40782 23.0001C7.56057 25.3152 8.24387 27.5641 9.40484 29.5728C9.50228 29.7414 9.56279 29.9289 9.58234 30.1226C9.6019 30.3164 9.58006 30.5122 9.51828 30.6969L7.375 37.125L13.8031 34.9817C13.9431 34.934 14.09 34.9096 14.238 34.9095C14.4795 34.91 14.7166 34.974 14.9255 35.0951C17.2248 36.4255 19.834 37.1268 22.4904 37.1285C25.1469 37.1301 27.757 36.4321 30.058 35.1047C32.359 33.7773 34.2698 31.8672 35.5982 29.5667C36.9266 27.2662 37.6256 24.6565 37.625 22Z" fill="white"/>
</svg>
