<svg width="38" height="38" viewBox="0 0 38 38" fill="none" xmlns="http://www.w3.org/2000/svg">
<path d="M36.3189 17.875L19.25 0.806107C18.9956 0.549635 18.6927 0.346296 18.359 0.207912C18.0253 0.0695283 17.6674 -0.00114029 17.3061 1.39132e-05H1.37501C1.01034 1.39132e-05 0.660605 0.14488 0.402742 0.402742C0.14488 0.660605 1.39132e-05 1.01034 1.39132e-05 1.37501V17.3061C-0.00114029 17.6674 0.0695283 18.0253 0.207912 18.359C0.346296 18.6927 0.549635 18.9956 0.806107 19.25L17.875 36.3189C18.1304 36.5743 18.4336 36.777 18.7673 36.9152C19.1009 37.0534 19.4586 37.1246 19.8198 37.1246C20.181 37.1246 20.5386 37.0534 20.8723 36.9152C21.206 36.777 21.5092 36.5743 21.7645 36.3189L36.3189 21.7645C36.5743 21.5092 36.777 21.206 36.9152 20.8723C37.0534 20.5386 37.1246 20.181 37.1246 19.8198C37.1246 19.4586 37.0534 19.1009 36.9152 18.7673C36.777 18.4336 36.5743 18.1304 36.3189 17.875ZM19.8189 34.375L2.75001 17.3061V2.75001H17.3061L34.375 19.8189L19.8189 34.375ZM11 8.93751C11 9.34544 10.8791 9.7442 10.6524 10.0834C10.4258 10.4226 10.1037 10.6869 9.7268 10.843C9.34993 10.9991 8.93523 11.04 8.53514 10.9604C8.13505 10.8808 7.76755 10.6844 7.47911 10.3959C7.19066 10.1075 6.99423 9.73997 6.91464 9.33989C6.83506 8.9398 6.87591 8.5251 7.03201 8.14823C7.18812 7.77136 7.45247 7.44924 7.79165 7.22261C8.13083 6.99598 8.52959 6.87501 8.93751 6.87501C9.48452 6.87501 10.0091 7.09231 10.3959 7.47911C10.7827 7.8659 11 8.3905 11 8.93751Z" fill="white"/>
</svg>
