<svg width="24" height="24" viewBox="0 0 24 24" fill="none" xmlns="http://www.w3.org/2000/svg">
<path d="M13.4419 1.67341C13.3494 1.59654 13.2398 1.54303 13.1224 1.51738C13.0049 1.49174 12.883 1.49471 12.7669 1.52605C12.6508 1.55739 12.544 1.61618 12.4554 1.69746C12.3668 1.77875 12.299 1.88014 12.2578 1.9931L10.1953 7.65653L7.93031 5.46184C7.85425 5.38807 7.76341 5.33125 7.66379 5.29513C7.56417 5.25901 7.45802 5.24441 7.35235 5.25229C7.24667 5.26018 7.14387 5.29036 7.05071 5.34086C6.95755 5.39137 6.87615 5.46104 6.81188 5.54528C4.78125 8.20591 3.75 10.8825 3.75 13.5C3.75 15.688 4.61919 17.7864 6.16637 19.3336C7.71354 20.8808 9.81196 21.75 12 21.75C14.188 21.75 16.2865 20.8808 17.8336 19.3336C19.3808 17.7864 20.25 15.688 20.25 13.5C20.25 7.92653 15.4884 3.37497 13.4419 1.67341ZM12 20.25C10.2104 20.248 8.49466 19.5362 7.22922 18.2707C5.96378 17.0053 5.25199 15.2896 5.25 13.5C5.25 11.4375 6.00844 9.30091 7.50562 7.13997L9.97781 9.53809C10.0676 9.62529 10.1778 9.68863 10.2983 9.72234C10.4188 9.75605 10.5459 9.75907 10.6679 9.73111C10.7899 9.70315 10.9029 9.64511 10.9967 9.56227C11.0906 9.47943 11.1621 9.37444 11.205 9.25684L13.2928 3.53153C15.3947 5.44497 18.75 9.17903 18.75 13.5C18.748 15.2896 18.0362 17.0053 16.7708 18.2707C15.5053 19.5362 13.7896 20.248 12 20.25Z" fill="#7C7C7C"/>
</svg>
