<svg width="45" height="44" viewBox="0 0 45 44" fill="none" xmlns="http://www.w3.org/2000/svg">
<path d="M25.2964 7.89424C25.3431 7.71974 25.4237 7.55614 25.5336 7.4128C25.6435 7.26946 25.7806 7.14918 25.937 7.05884C26.0935 6.9685 26.2662 6.90986 26.4453 6.88629C26.6243 6.86271 26.8063 6.87465 26.9808 6.92142C29.5298 7.58649 31.8555 8.91903 33.7182 10.7818C35.581 12.6446 36.9135 14.9702 37.5786 17.5192C37.6254 17.6937 37.6373 17.8757 37.6138 18.0548C37.5902 18.2339 37.5315 18.4066 37.4412 18.563C37.3509 18.7194 37.2306 18.8565 37.0872 18.9664C36.9439 19.0763 36.7803 19.1569 36.6058 19.2036C36.4897 19.2341 36.3701 19.2497 36.25 19.25C35.947 19.25 35.6525 19.1499 35.4122 18.9653C35.172 18.7807 34.9994 18.5219 34.9214 18.2291C34.379 16.1482 33.2915 14.2497 31.7709 12.7291C30.2504 11.2086 28.3518 10.121 26.271 9.57861C26.0963 9.53212 25.9325 9.45166 25.789 9.34181C25.6455 9.23197 25.525 9.09491 25.4345 8.93847C25.344 8.78203 25.2852 8.60928 25.2615 8.4301C25.2378 8.25092 25.2497 8.06883 25.2964 7.89424ZM24.896 15.0786C27.2661 15.7111 28.7889 17.2339 29.4214 19.6041C29.4994 19.8969 29.672 20.1557 29.9122 20.3403C30.1525 20.5249 30.447 20.625 30.75 20.625C30.8701 20.6247 30.9897 20.6091 31.1058 20.5786C31.2803 20.5319 31.4439 20.4513 31.5872 20.3414C31.7306 20.2315 31.8509 20.0944 31.9412 19.938C32.0315 19.7816 32.0902 19.6089 32.1137 19.4298C32.1373 19.2507 32.1254 19.0687 32.0786 18.8942C31.1986 15.6011 28.8989 13.3014 25.6058 12.4214C25.2534 12.3273 24.8781 12.377 24.5624 12.5596C24.2467 12.7422 24.0164 13.0427 23.9223 13.3951C23.8281 13.7475 23.8779 14.1228 24.0604 14.4385C24.243 14.7542 24.5436 14.9845 24.896 15.0786ZM38.9794 31.4669C38.6729 33.7959 37.5292 35.9336 35.7617 37.4809C33.9943 39.0282 31.724 39.8792 29.375 39.875C15.7281 39.875 4.62502 28.7719 4.62502 15.125C4.6208 12.776 5.47182 10.5057 7.01912 8.73831C8.56642 6.97087 10.7042 5.82711 13.0331 5.52064C13.6221 5.44873 14.2185 5.56922 14.7333 5.86412C15.2481 6.15901 15.6538 6.6125 15.8897 7.15689L19.5197 15.2608V15.2814C19.7003 15.6981 19.7749 16.1531 19.7368 16.6057C19.6987 17.0583 19.5491 17.4944 19.3014 17.875C19.2705 17.9214 19.2378 17.9644 19.2035 18.0074L15.625 22.2492C16.9124 24.8652 19.6486 27.5774 22.2989 28.8681L26.4824 25.3086C26.5234 25.2741 26.5665 25.2419 26.6113 25.2124C26.9916 24.9587 27.4292 24.8038 27.8845 24.7618C28.3397 24.7198 28.7983 24.7919 29.2186 24.9717L29.241 24.9821L37.338 28.6103C37.8833 28.8454 38.3379 29.2507 38.6338 29.7656C38.9297 30.2805 39.0509 30.8774 38.9794 31.4669ZM36.25 31.1231C36.25 31.1231 36.238 31.1231 36.2311 31.1231L28.153 27.5052L23.9678 31.0647C23.9272 31.0991 23.8848 31.1312 23.8406 31.161C23.4449 31.425 22.9875 31.5818 22.513 31.6161C22.0385 31.6505 21.5632 31.5612 21.1336 31.3569C17.9144 29.8014 14.7055 26.6166 13.1483 23.4317C12.9421 23.0052 12.8496 22.5327 12.8797 22.0599C12.9098 21.5872 13.0615 21.1302 13.3202 20.7333C13.3493 20.6867 13.3821 20.6424 13.4181 20.601L17 16.3539L13.3906 8.2758C13.39 8.26894 13.39 8.26203 13.3906 8.25517C11.7239 8.47259 10.1936 9.29014 9.08622 10.5547C7.97889 11.8193 7.37051 13.4442 7.37502 15.125C7.38138 20.9578 9.70128 26.5499 13.8257 30.6743C17.9501 34.7988 23.5422 37.1186 29.375 37.125C31.0548 37.1308 32.6793 36.5245 33.9446 35.4196C35.2099 34.3147 36.0294 32.7867 36.25 31.1214V31.1231Z" fill="white"/>
</svg>
