<svg width="18" height="16" viewBox="0 0 18 16" fill="none" xmlns="http://www.w3.org/2000/svg">
<path d="M15.875 3.99998H10.5086L13.1922 1.31717C13.3095 1.19989 13.3753 1.04083 13.3753 0.874981C13.3753 0.709129 13.3095 0.550069 13.1922 0.432794C13.0749 0.315518 12.9159 0.249634 12.75 0.249634C12.5841 0.249634 12.4251 0.315518 12.3078 0.432794L9 3.74139L5.69219 0.432794C5.63412 0.374725 5.56518 0.328662 5.48931 0.297235C5.41344 0.265809 5.33212 0.249634 5.25 0.249634C5.16788 0.249634 5.08656 0.265809 5.01069 0.297235C4.93482 0.328662 4.86588 0.374725 4.80781 0.432794C4.69054 0.550069 4.62465 0.709129 4.62465 0.874981C4.62465 1.04083 4.69054 1.19989 4.80781 1.31717L7.49141 3.99998H2.125C1.79348 3.99998 1.47554 4.13168 1.24112 4.3661C1.0067 4.60052 0.875 4.91846 0.875 5.24998V14.625C0.875 14.9565 1.0067 15.2744 1.24112 15.5089C1.47554 15.7433 1.79348 15.875 2.125 15.875H15.875C16.2065 15.875 16.5245 15.7433 16.7589 15.5089C16.9933 15.2744 17.125 14.9565 17.125 14.625V5.24998C17.125 4.91846 16.9933 4.60052 16.7589 4.3661C16.5245 4.13168 16.2065 3.99998 15.875 3.99998ZM15.875 14.625H2.125V5.24998H15.875V14.625Z" fill="#054279"/>
</svg>
